<svg xmlns="http://www.w3.org/2000/svg" width="49.691" height="49.87" viewBox="0 0 49.691 49.87">
  <g id="Question_Mark" data-name="Question Mark" transform="translate(-7.266 -7.265)">
    <g id="Group_2" data-name="Group 2">
      <path id="Path_4" data-name="Path 4" d="M32.11,57.135A24.935,24.935,0,1,1,56.957,32.2,24.89,24.89,0,0,1,32.11,57.135Zm0-46.846A21.911,21.911,0,1,0,53.943,32.2,21.871,21.871,0,0,0,32.11,10.289Z" fill="#fff"/>
      <path id="Path_5" data-name="Path 5" d="M32.039,45.18a2.028,2.028,0,0,1-2.009-2.016,1.742,1.742,0,0,1,.04-.393,1.661,1.661,0,0,1,.11-.383,2.351,2.351,0,0,1,.191-.344,2.188,2.188,0,0,1,.552-.553,1.594,1.594,0,0,1,.342-.192,1.76,1.76,0,0,1,.382-.111,2,2,0,0,1,1.808.554,1.429,1.429,0,0,1,.251.3,2.35,2.35,0,0,1,.191.344,1.661,1.661,0,0,1,.11.383,1.742,1.742,0,0,1,.04.393,2.028,2.028,0,0,1-2.009,2.016Zm-7.333-19.3a1.512,1.512,0,0,1-1.374-2.117c.085-.194,2.169-4.738,8.708-4.738a1.512,1.512,0,0,1,0,3.024c-4.511,0-5.9,2.838-5.96,2.959a1.521,1.521,0,0,1-1.373.872Z" transform="translate(0.071 0.095)" fill="#fff"/>
    </g>
    <path id="Path_6" data-name="Path 6" d="M32,38.9a1.5,1.5,0,0,1-1.5-1.5V35.508c0-2.311,2.01-3.587,3.953-4.82,2.755-1.75,4.4-2.97,3.455-5.777-.18-.347-1.646-2.881-5.908-2.881a1.5,1.5,0,0,1,0-3c6.51,0,8.584,4.51,8.669,4.7.017.037.031.074.044.111,1.844,5.254-2.066,7.735-4.652,9.377-1.2.762-2.561,1.626-2.561,2.288V37.4A1.5,1.5,0,0,1,32,38.9Z" fill="#fff"/>
  </g>
</svg>
